<?xml version="1.0" encoding="utf-8"?>
<!-- Generator: Adobe Illustrator 25.4.1, SVG Export Plug-In . SVG Version: 6.00 Build 0)  -->
<svg version="1.1" id="Camada_1" xmlns="http://www.w3.org/2000/svg" xmlns:xlink="http://www.w3.org/1999/xlink" x="0px" y="0px"
	 viewBox="0 0 75.5 74.8" style="enable-background:new 0 0 75.5 74.8;" xml:space="preserve">
<style type="text/css">
	.st0{fill-rule:evenodd;clip-rule:evenodd;fill:#C72524;}
	.st1{fill-rule:evenodd;clip-rule:evenodd;}
</style>
<g>
	<g>
		<polygon class="st0" points="60.2,13.5 29.6,31.5 37.8,36.1 68.4,18.1 		"/>
		<polygon class="st0" points="48.8,6.8 18.2,24.8 26.4,29.5 57,11.5 		"/>
		<polygon class="st0" points="37.7,0.5 7,18.5 15.2,23.2 45.8,5.2 		"/>
		<polygon class="st1" points="47.3,69.5 47.2,33.6 39.1,38.5 39.2,74.3 		"/>
		<polygon class="st1" points="58.7,62.8 58.6,27 50.5,31.8 50.6,67.6 		"/>
		<polygon class="st1" points="69.7,56.2 69.6,20.4 61.5,25.2 61.6,61 		"/>
		<polygon class="st1" points="36.6,48.2 6,30.3 5.8,20.6 36.4,38.5 		"/>
		<polygon class="st1" points="36.6,60.8 6,42.8 5.8,33.1 36.4,51.1 		"/>
		<polygon class="st1" points="36.6,73.4 6,55.4 5.8,45.7 36.4,63.7 		"/>
	</g>
</g>
</svg>
